<?xml version="1.0" encoding="UTF-8"?><svg id="_レイヤー_1" xmlns="http://www.w3.org/2000/svg" xmlns:xlink="http://www.w3.org/1999/xlink" viewBox="0 0 224 72.45"><defs><style>.cls-1{fill:#e5bd4f;}.cls-2{fill:url(#_名称未設定グラデーション_3);}.cls-3{fill:#c1875f;}.cls-4{fill:#40a1c1;}.cls-5{fill:#fff;}.cls-6{fill:#d0372c;}.cls-7{fill:#82c3d0;}.cls-8{fill:#eb6143;}.cls-9{fill:#f4b3c5;}.cls-10{fill:#45a2b0;}.cls-11{fill:#05346e;}.cls-12{fill:#e9d7bb;}.cls-13{fill:#7c266e;}</style><linearGradient id="_名称未設定グラデーション_3" x1="-994.6" y1="799.18" x2="-994.6" y2="733.74" gradientTransform="translate(1020.75 -729.69)" gradientUnits="userSpaceOnUse"><stop offset=".03" stop-color="#595757"/><stop offset=".75" stop-color="#231815"/></linearGradient></defs><polygon class="cls-7" points="215.38 19.31 199.56 18.64 191.68 0 207.5 .67 215.38 19.31"/><polygon class="cls-4" points="187.22 31.22 199.56 18.64 191.68 0 179.34 12.58 187.22 31.22"/><polygon class="cls-9" points="203.03 31.89 187.22 31.22 179.34 12.58 195.16 13.25 203.03 31.89"/><polygon class="cls-8" points="203.03 31.89 215.38 19.31 207.5 .67 195.16 13.25 203.03 31.89"/><path class="cls-11" d="M190.88,53.01c-2.69,0-5.16-.73-7.54-2.22l-.31-.19,1.76-5.33.51.37c1.78,1.27,3.64,1.95,5.39,1.95,1.65,0,3.31-.66,3.31-2.15,0-1.05-.55-1.77-3.55-2.81-3.31-1.13-6.38-2.78-6.38-7.15s3.47-7.67,8.25-7.67c2.67,0,4.59.87,6.12,1.71l.31.17-1.38,5.38-.54-.35c-1.54-.99-3.01-1.49-4.37-1.49-1.53,0-2.56.79-2.56,1.97s.66,1.57,2.64,2.23c3.86,1.27,7.31,2.8,7.31,7.64s-3.79,7.93-9,7.93Z"/><path class="cls-11" d="M71.58,52.94v-2.03l-.28.18c-1.94,1.21-4.19,1.85-6.51,1.85-6.81,0-12.35-5.54-12.35-12.35s5.54-12.35,12.35-12.35c2.31,0,4.56.64,6.51,1.85l.28.18v-2.03h5.56v24.69h-5.56ZM64.79,33.81c-3.74,0-6.79,3.04-6.79,6.79s2.98,6.71,6.65,6.79h.14c3.74,0,6.79-3.04,6.79-6.79,0-3.74-3.05-6.79-6.79-6.79Z"/><path class="cls-11" d="M124.08,52.96c-3.67,0-7.12-1.61-9.47-4.41-2.12-2.53-3.13-5.73-2.84-9.02.29-3.29,1.84-6.27,4.37-8.39,2.22-1.86,5.04-2.89,7.93-2.89,3.6,0,7,1.56,9.35,4.27l-4.25,3.56c-1.29-1.46-3.14-2.29-5.1-2.29-1.6,0-3.15.57-4.37,1.59-2.88,2.41-3.25,6.72-.84,9.59,1.3,1.55,3.2,2.43,5.22,2.43,1.6,0,3.15-.57,4.37-1.59.25-.21.48-.44.72-.7l4.25,3.57c-.44.5-.91.97-1.4,1.38-2.22,1.86-5.04,2.89-7.93,2.89Z"/><polygon class="cls-7" points="214.03 48.75 214.15 43.49 224 36.43 222.78 42.82 214.03 48.75"/><polygon class="cls-7" points="207.48 34.3 214.15 43.49 224 36.43 216.23 28.37 207.48 34.3"/><polygon class="cls-1" points="206.26 40.69 207.48 34.3 216.23 28.37 215 34.76 206.26 40.69"/><polygon class="cls-12" points="206.26 40.69 214.03 48.75 222.78 42.82 215 34.76 206.26 40.69"/><path class="cls-3" d="M168.32,20.26c1.69,0,3.06-1.37,3.06-3.06s-1.37-3.06-3.06-3.06-3.06,1.37-3.06,3.06,1.37,3.06,3.06,3.06"/><path class="cls-13" d="M160.29,24.94c1.69,0,3.06-1.37,3.06-3.06s-1.37-3.06-3.06-3.06-3.06,1.37-3.06,3.06,1.37,3.06,3.06,3.06"/><path class="cls-11" d="M88.38,30.08l.28-.16c1.91-1.1,4.16-1.68,6.51-1.68,7.15,0,12.35,5.13,12.35,12.2v12.49h-5.56v-12.26c0-3.95-2.85-6.82-6.79-6.82s-6.78,2.87-6.78,6.82"/><polyline class="cls-8" points="88.39 40.68 88.39 52.94 82.82 52.94 82.82 28.24 88.38 28.24 88.38 30.08"/><polyline class="cls-11" points="170.46 30.28 170.46 28.24 164.89 28.24 164.89 52.94 170.46 52.94 170.46 50.87 170.46 50.87 170.46 40.41"/><path class="cls-1" d="M170.46,40.41c.1-3.66,3.1-6.61,6.78-6.61.9,0,1.75.18,2.54.5l2.08-5.15c-1.43-.58-2.99-.9-4.62-.9-2.5,0-4.83.75-6.78,2.03"/><path class="cls-7" d="M47.22,10.27c.3.3.55.64.74,1.02.2.38.33.79.4,1.25s.06.89-.02,1.31c-.07.42-.21.83-.41,1.2-.27.5-.07,1.14.43,1.41.5.27,1.13.08,1.4-.43.3-.56.52-1.16.63-1.8.11-.64.13-1.31.02-1.98s-.31-1.31-.6-1.89c-.29-.58-.68-1.1-1.13-1.54-.41-.4-1.06-.41-1.47,0-.4.4-.41,1.05,0,1.46"/><path class="cls-7" d="M50.46,7.83c.95,1.14,1.62,2.55,1.85,4.13.24,1.58.01,3.11-.57,4.48-.23.52.02,1.14.54,1.36.52.22,1.14-.02,1.36-.55.73-1.71,1.02-3.64.72-5.61-.29-1.97-1.13-3.73-2.33-5.16-.37-.44-1.03-.48-1.46-.12-.43.37-.5,1.03-.12,1.46"/><path class="cls-7" d="M53.89,5.33c1.35,1.67,2.28,3.71,2.62,6,.34,2.28.04,4.51-.76,6.5-.21.53.05,1.14.58,1.35.53.22,1.14-.04,1.35-.57.93-2.32,1.28-4.93.88-7.58-.4-2.66-1.49-5.04-3.06-7-.36-.45-1.01-.52-1.46-.16-.45.36-.52,1.01-.16,1.47"/><path class="cls-7" d="M57.32,2.81c1.74,2.22,2.95,4.9,3.39,7.89.45,2.99.08,5.9-.94,8.53-.21.53.06,1.14.59,1.34.53.21,1.14-.06,1.34-.59,1.15-2.95,1.56-6.24,1.06-9.59-.5-3.35-1.85-6.38-3.81-8.87-.35-.44-1-.53-1.45-.18-.45.36-.54,1.01-.18,1.46"/><rect class="cls-2" x="5.48" y="4.05" width="41.33" height="65.45" rx="2.3" ry="2.3" transform="translate(-6.55 5.68) rotate(-11.03)"/><polygon class="cls-5" points="19.03 57.17 11.89 20.54 18.44 19.26 24.3 49.33 41.74 45.93 43.02 52.49 19.03 57.17"/><path class="cls-6" d="M160.26,43.36c.21-.89.32-1.81.32-2.76,0-6.81-5.54-12.34-12.35-12.34s-12.35,5.54-12.35,12.34c0,.95.12,1.87.33,2.76h5.81c-.38-.85-.59-1.78-.59-2.76,0-3.76,3.05-6.81,6.81-6.81s6.81,3.05,6.81,6.81c0,.99-.21,1.92-.59,2.76h5.79Z"/><path class="cls-3" d="M160.26,37.85h-18.25c-.37.84-.58,1.77-.58,2.74s.21,1.92.59,2.76h18.23c.2-.89.32-1.81.32-2.76s-.12-1.86-.32-2.74Z"/><path class="cls-10" d="M147.98,52.93h.25c4.94,0,9.21-2.92,11.18-7.13h-6.79c-1.18,1-2.71,1.6-4.38,1.6-2.78,0-5.16-1.66-6.22-4.05h-5.81c1.25,5.37,6.05,9.46,11.77,9.58Z"/></svg>